<svg id="kity_svg_6" xmlns="http://www.w3.org/2000/svg" xmlns:xlink="http://www.w3.org/1999/xlink" version="1.1" width="1591" height="1105" style="background: rgb(251, 251, 251) none repeat scroll 0% 0%; visibility: visible;" viewBox="0 0 1591 1105"><defs id="kity_defs_7"><linearGradient id="kity_linearGradient_17" x1="0" y1="0" x2="0" y2="1"><stop id="kity_stop_18" offset="0" stop-color="rgb(255, 255, 255)"></stop><stop id="kity_stop_19" offset="1" stop-color="rgb(204, 204, 204)"></stop></linearGradient><marker id="kity_marker_4" orient="auto" refX="6" refY="0" viewBox="-7 -7 14 14" markerWidth="7" markerHeight="7" markerUnits="userSpaceOnUse"><path id="kity_path_5" fill="rgb(115, 161, 191)" stroke="none" d="M6,0A6,6,0,1,1,-6,0A6,6,0,1,1,6,0"></path></marker><marker id="kity_marker_2" orient="auto" refX="6" refY="0" viewBox="-7 -7 14 14" markerWidth="7" markerHeight="7" markerUnits="userSpaceOnUse"><path id="kity_path_3" fill="rgb(115, 161, 191)" stroke="none" d="M6,0A6,6,0,1,1,-6,0A6,6,0,1,1,6,0"></path></marker></defs><g id="kity_g_8"><g id="minder1" text-rendering="geometricPrecision"><g id="minder_connect_group1"><path id="kity_path_31" fill="none" stroke="rgb(115, 161, 191)" stroke-width="1" d="M844,485.5A221.5,0,0,0,1,1065.5,485.5"></path><path id="kity_path_39" fill="none" stroke="rgb(115, 161, 191)" stroke-width="1" d="M844,485.5A221.5,0,0,0,1,622.5,485.5"></path><path id="kity_path_71" fill="none" stroke="rgb(115, 161, 191)" stroke-width="1" d="M524.5,485.5C509.5,485.5,509.5,337.5,494.5,337.5L404.5,337.5"></path><path id="kity_path_79" fill="none" stroke="rgb(115, 161, 191)" stroke-width="1" d="M524.5,485.5C509.5,485.5,509.5,662.5,494.5,662.5L356.5,662.5"></path><path id="kity_path_174" fill="none" stroke="rgb(115, 161, 191)" stroke-width="1" d="M1271.5,122.5C1286.5,122.5,1286.5,44.5,1301.5,44.5L1403.5,44.5"></path><path id="kity_path_175" fill="none" stroke="rgb(115, 161, 191)" stroke-width="1" d="M1271.5,122.5C1286.5,122.5,1286.5,96.5,1301.5,96.5L1379.5,96.5"></path><path id="kity_path_176" fill="none" stroke="rgb(115, 161, 191)" stroke-width="1" d="M1271.5,122.5C1286.5,122.5,1286.5,148.5,1301.5,148.5L1487.5,148.5"></path><path id="kity_path_177" fill="none" stroke="rgb(115, 161, 191)" stroke-width="1" d="M1271.5,122.5C1286.5,122.5,1286.5,200.5,1301.5,200.5L1391.5,200.5"></path><path id="kity_path_178" fill="none" stroke="rgb(115, 161, 191)" stroke-width="1" d="M1163.5,485.5C1178.5,485.5,1178.5,122.5,1193.5,122.5L1271.5,122.5"></path><path id="kity_path_179" fill="none" stroke="rgb(115, 161, 191)" stroke-width="1" d="M1271.5,434.5C1286.5,434.5,1286.5,252.5,1301.5,252.5L1559.5,252.5"></path><path id="kity_path_180" fill="none" stroke="rgb(115, 161, 191)" stroke-width="1" d="M1271.5,434.5C1286.5,434.5,1286.5,304.5,1301.5,304.5L1475.5,304.5"></path><path id="kity_path_181" fill="none" stroke="rgb(115, 161, 191)" stroke-width="1" d="M1271.5,434.5C1286.5,434.5,1286.5,356.5,1301.5,356.5L1415.5,356.5"></path><path id="kity_path_182" fill="none" stroke="rgb(115, 161, 191)" stroke-width="1" d="M1271.5,434.5C1286.5,434.5,1286.5,408.5,1301.5,408.5L1415.5,408.5"></path><path id="kity_path_183" fill="none" stroke="rgb(115, 161, 191)" stroke-width="1" d="M1271.5,434.5C1286.5,434.5,1286.5,460.5,1301.5,460.5L1463.5,460.5"></path><path id="kity_path_184" fill="none" stroke="rgb(115, 161, 191)" stroke-width="1" d="M1271.5,434.5C1286.5,434.5,1286.5,512.5,1301.5,512.5L1499.5,512.5"></path><path id="kity_path_185" fill="none" stroke="rgb(115, 161, 191)" stroke-width="1" d="M1271.5,434.5C1286.5,434.5,1286.5,564.5,1301.5,564.5L1499.5,564.5"></path><path id="kity_path_186" fill="none" stroke="rgb(115, 161, 191)" stroke-width="1" d="M1163.5,485.5C1178.5,485.5,1178.5,434.5,1193.5,434.5L1271.5,434.5"></path><path id="kity_path_187" fill="none" stroke="rgb(115, 161, 191)" stroke-width="1" d="M1163.5,485.5C1178.5,485.5,1178.5,876.5,1193.5,876.5L1271.5,876.5"></path><path id="kity_path_189" fill="none" stroke="rgb(115, 161, 191)" stroke-width="1" d="M1271.5,434.5C1286.5,434.5,1286.5,616.5,1301.5,616.5L1463.5,616.5"></path><path id="kity_path_197" fill="none" stroke="rgb(115, 161, 191)" stroke-width="1" d="M1271.5,876.5C1286.5,876.5,1286.5,668.5,1301.5,668.5L1571.5,668.5"></path><path id="kity_path_205" fill="none" stroke="rgb(115, 161, 191)" stroke-width="1" d="M1271.5,876.5C1286.5,876.5,1286.5,720.5,1301.5,720.5L1475.5,720.5"></path><path id="kity_path_213" fill="none" stroke="rgb(115, 161, 191)" stroke-width="1" d="M1271.5,876.5C1286.5,876.5,1286.5,772.5,1301.5,772.5L1415.5,772.5"></path><path id="kity_path_221" fill="none" stroke="rgb(115, 161, 191)" stroke-width="1" d="M1271.5,876.5C1286.5,876.5,1286.5,824.5,1301.5,824.5L1415.5,824.5"></path><path id="kity_path_229" fill="none" stroke="rgb(115, 161, 191)" stroke-width="1" d="M1271.5,876.5C1286.5,876.5,1286.5,876.5,1301.5,876.5L1499.5,876.5"></path><path id="kity_path_237" fill="none" stroke="rgb(115, 161, 191)" stroke-width="1" d="M1271.5,876.5C1286.5,876.5,1286.5,928.5,1301.5,928.5L1487.5,928.5"></path><path id="kity_path_245" fill="none" stroke="rgb(115, 161, 191)" stroke-width="1" d="M1271.5,876.5C1286.5,876.5,1286.5,980.5,1301.5,980.5L1535.5,980.5"></path><path id="kity_path_253" fill="none" stroke="rgb(115, 161, 191)" stroke-width="1" d="M1271.5,876.5C1286.5,876.5,1286.5,1032.5,1301.5,1032.5L1547.5,1032.5"></path><path id="kity_path_261" fill="none" stroke="rgb(115, 161, 191)" stroke-width="1" d="M1271.5,876.5C1286.5,876.5,1286.5,1084.5,1301.5,1084.5L1535.5,1084.5"></path><path id="kity_path_269" fill="none" stroke="rgb(115, 161, 191)" stroke-width="1" d="M404.5,337.5C389.5,337.5,389.5,116.5,374.5,116.5L296.5,116.5"></path><path id="kity_path_277" fill="none" stroke="rgb(115, 161, 191)" stroke-width="1" d="M404.5,337.5C389.5,337.5,389.5,220.5,374.5,220.5L296.5,220.5"></path><path id="kity_path_285" fill="none" stroke="rgb(115, 161, 191)" stroke-width="1" d="M404.5,337.5C389.5,337.5,389.5,324.5,374.5,324.5L296.5,324.5"></path><path id="kity_path_293" fill="none" stroke="rgb(115, 161, 191)" stroke-width="1" d="M404.5,337.5C389.5,337.5,389.5,428.5,374.5,428.5L296.5,428.5"></path><path id="kity_path_301" fill="none" stroke="rgb(115, 161, 191)" stroke-width="1" d="M404.5,337.5C389.5,337.5,389.5,558.5,374.5,558.5L296.5,558.5"></path><path id="kity_path_309" fill="none" stroke="rgb(115, 161, 191)" stroke-width="1" d="M296.5,116.5C281.5,116.5,281.5,90.5,266.5,90.5L68.5,90.5"></path><path id="kity_path_317" fill="none" stroke="rgb(115, 161, 191)" stroke-width="1" d="M296.5,116.5C281.5,116.5,281.5,142.5,266.5,142.5L68.5,142.5"></path><path id="kity_path_341" fill="none" stroke="rgb(115, 161, 191)" stroke-width="1" d="M296.5,220.5C281.5,220.5,281.5,194.5,266.5,194.5L20.5,194.5"></path><path id="kity_path_349" fill="none" stroke="rgb(115, 161, 191)" stroke-width="1" d="M296.5,220.5C281.5,220.5,281.5,246.5,266.5,246.5L75.5,246.5"></path><path id="kity_path_357" fill="none" stroke="rgb(115, 161, 191)" stroke-width="1" d="M296.5,324.5C281.5,324.5,281.5,298.5,266.5,298.5L80.5,298.5"></path><path id="kity_path_365" fill="none" stroke="rgb(115, 161, 191)" stroke-width="1" d="M296.5,324.5C281.5,324.5,281.5,350.5,266.5,350.5L56.5,350.5"></path><path id="kity_path_373" fill="none" stroke="rgb(115, 161, 191)" stroke-width="1" d="M296.5,428.5C281.5,428.5,281.5,402.5,266.5,402.5L68.5,402.5"></path><path id="kity_path_381" fill="none" stroke="rgb(115, 161, 191)" stroke-width="1" d="M296.5,428.5C281.5,428.5,281.5,454.5,266.5,454.5L92.5,454.5"></path><path id="kity_path_389" fill="none" stroke="rgb(115, 161, 191)" stroke-width="1" d="M296.5,558.5C281.5,558.5,281.5,506.5,266.5,506.5L128.5,506.5"></path><path id="kity_path_397" fill="none" stroke="rgb(115, 161, 191)" stroke-width="1" d="M296.5,558.5C281.5,558.5,281.5,558.5,266.5,558.5L152.5,558.5"></path><path id="kity_path_405" fill="none" stroke="rgb(115, 161, 191)" stroke-width="1" d="M296.5,558.5C281.5,558.5,281.5,610.5,266.5,610.5L176.5,610.5"></path></g><g id="minder_node1"><path id="node_outline1" fill="rgb(115, 161, 191)" stroke="rgb(57, 80, 96)" d="M745.5,465.5h197a5,5,0,0,1,5,5v30a5,5,0,0,1,-5,5h-197a5,5,0,0,1,-5,-5v-30a5,5,0,0,1,5,-5z" stroke-width="3"></path><g id="node_text1" fill="white"><text id="kity_text_22" text-rendering="inherit" font-size="16" dy=".8em" y="474.939998626709" x="764.5">php毕业论文选题系统</text></g></g><g id="kity_g_14" display="none"><path id="kity_path_15" fill="rgba(0, 92, 153, 0.5)" stroke="none" d="M1317.5,497.5h224v15h-224z"></path><path id="kity_path_16" fill="none" stroke="rgb(0, 76, 128)" d="M1317.5,497.5L1541.5,497.5" stroke-width="1"></path></g><g id="minder_node2" opacity="1"><g id="node_expander1" style="cursor: pointer;"><path id="kity_path_36" fill="white" stroke="gray" d="M1066.5,485.5A6,6,0,1,1,1054.5,485.5A6,6,0,1,1,1066.5,485.5"></path><path id="kity_path_37" fill="none" stroke="gray" d="M1056,485.5L1065,485.5"></path></g><path id="node_outline2" fill="rgb(238, 243, 246)" stroke="rgb(115, 161, 191)" d="M1070.5,472.5h90a3,3,0,0,1,3,3v20a3,3,0,0,1,-3,3h-90a3,3,0,0,1,-3,-3v-20a3,3,0,0,1,3,-3z" stroke-width="1"></path><g id="node_text2" fill="black"><text id="kity_text_33" text-rendering="inherit" font-size="14" dy=".8em" y="476.2599983215332" x="1087.5">前台应用</text></g></g><g id="minder_node3" opacity="1"><g id="node_expander2" style="cursor: pointer;"><path id="kity_path_44" fill="white" stroke="gray" d="M633.5,485.5A6,6,0,1,1,621.5,485.5A6,6,0,1,1,633.5,485.5"></path><path id="kity_path_45" fill="none" stroke="gray" d="M623,485.5L632,485.5"></path></g><path id="node_outline3" fill="rgb(238, 243, 246)" stroke="rgb(115, 161, 191)" d="M527.5,472.5h90a3,3,0,0,1,3,3v20a3,3,0,0,1,-3,3h-90a3,3,0,0,1,-3,-3v-20a3,3,0,0,1,3,-3z" stroke-width="1"></path><g id="node_text3" fill="black"><text id="kity_text_41" text-rendering="inherit" font-size="14" dy=".8em" y="476.2599983215332" x="544.5">后台应用</text></g></g><g id="minder_node7"><g id="node_expander6" style="cursor: pointer;"><path id="kity_path_76" fill="white" stroke="gray" d="M496.5,323.5A6,6,0,1,1,484.5,323.5A6,6,0,1,1,496.5,323.5"></path><path id="kity_path_77" fill="none" stroke="gray" d="M486,323.5L495,323.5"></path></g><path id="node_outline7" fill="none" stroke="none" d="M409.5,312.5h70a5,5,0,0,1,5,5v12a5,5,0,0,1,-5,5h-70a5,5,0,0,1,-5,-5v-12a5,5,0,0,1,5,-5z" stroke-width="3"></path><g id="node_text7" fill="black"><text id="kity_text_73" text-rendering="inherit" font-size="12" dy=".8em" y="315.5800018310547" x="414.5">超级管理员</text></g></g><g id="minder_node8"><g id="node_expander7" style="cursor: pointer;" display="none"><path id="kity_path_84" fill="white" stroke="gray" d="M496.5,648.5A6,6,0,1,1,484.5,648.5A6,6,0,1,1,496.5,648.5"></path><path id="kity_path_85" fill="none" stroke="gray"></path></g><path id="node_outline8" fill="none" stroke="none" d="M361.5,637.5h118a5,5,0,0,1,5,5v12a5,5,0,0,1,-5,5h-118a5,5,0,0,1,-5,-5v-12a5,5,0,0,1,5,-5z" stroke-width="3"></path><g id="node_text8" fill="black"><text id="kity_text_81" text-rendering="inherit" font-size="12" dy=".8em" y="640.5800018310547" x="366.5">其他管理员（暂无）</text></g></g><g id="minder_node9"><g id="node_expander8" style="cursor: pointer;" display="none"><path id="kity_path_92" fill="white" stroke="gray" d="M1311.5,30.5A6,6,0,1,1,1299.5,30.5A6,6,0,1,1,1311.5,30.5"></path><path id="kity_path_93" fill="none" stroke="gray"></path></g><path id="node_outline9" fill="none" stroke="none" d="M1316.5,19.5h82a5,5,0,0,1,5,5v12a5,5,0,0,1,-5,5h-82a5,5,0,0,1,-5,-5v-12a5,5,0,0,1,5,-5z" stroke-width="3"></path><g id="node_text9" fill="black"><text id="kity_text_89" text-rendering="inherit" font-size="12" dy=".8em" y="22.580001831054688" x="1321.5">查看教师情况</text></g></g><g id="minder_node10"><g id="node_expander9" style="cursor: pointer;" display="none"><path id="kity_path_100" fill="white" stroke="gray" d="M1311.5,82.5A6,6,0,1,1,1299.5,82.5A6,6,0,1,1,1311.5,82.5"></path><path id="kity_path_101" fill="none" stroke="gray"></path></g><path id="node_outline10" fill="none" stroke="none" d="M1316.5,71.5h58a5,5,0,0,1,5,5v12a5,5,0,0,1,-5,5h-58a5,5,0,0,1,-5,-5v-12a5,5,0,0,1,5,-5z" stroke-width="3"></path><g id="node_text10" fill="black"><text id="kity_text_97" text-rendering="inherit" font-size="12" dy=".8em" y="74.58000183105469" x="1321.5">查看院系</text></g></g><g id="minder_node11"><g id="node_expander10" style="cursor: pointer;" display="none"><path id="kity_path_108" fill="white" stroke="gray" d="M1311.5,134.5A6,6,0,1,1,1299.5,134.5A6,6,0,1,1,1311.5,134.5"></path><path id="kity_path_109" fill="none" stroke="gray"></path></g><path id="node_outline11" fill="none" stroke="none" d="M1316.5,123.5h166a5,5,0,0,1,5,5v12a5,5,0,0,1,-5,5h-166a5,5,0,0,1,-5,-5v-12a5,5,0,0,1,5,-5z" stroke-width="3"></path><g id="node_text11" fill="black"><text id="kity_text_105" text-rendering="inherit" font-size="12" dy=".8em" y="126.58000183105469" x="1321.5">查看教师选课及院系正选结果</text></g></g><g id="minder_node12"><g id="node_expander11" style="cursor: pointer;" display="none"><path id="kity_path_116" fill="white" stroke="gray" d="M1311.5,186.5A6,6,0,1,1,1299.5,186.5A6,6,0,1,1,1311.5,186.5"></path><path id="kity_path_117" fill="none" stroke="gray"></path></g><path id="node_outline12" fill="none" stroke="none" d="M1316.5,175.5h70a5,5,0,0,1,5,5v12a5,5,0,0,1,-5,5h-70a5,5,0,0,1,-5,-5v-12a5,5,0,0,1,5,-5z" stroke-width="3"></path><g id="node_text12" fill="black"><text id="kity_text_113" text-rendering="inherit" font-size="12" dy=".8em" y="178.5800018310547" x="1321.5">注册及登陆</text></g></g><g id="minder_node4"><g id="node_expander3" style="cursor: pointer;"><path id="kity_path_52" fill="white" stroke="gray" d="M1203.5,108.5A6,6,0,1,1,1191.5,108.5A6,6,0,1,1,1203.5,108.5"></path><path id="kity_path_53" fill="none" stroke="gray" d="M1193,108.5L1202,108.5"></path></g><path id="node_outline4" fill="none" stroke="none" d="M1208.5,97.5h58a5,5,0,0,1,5,5v12a5,5,0,0,1,-5,5h-58a5,5,0,0,1,-5,-5v-12a5,5,0,0,1,5,-5z" stroke-width="3"></path><g id="node_text4" fill="black"><text id="kity_text_49" text-rendering="inherit" font-size="12" dy=".8em" y="100.58000183105469" x="1213.5">游客身份</text></g></g><g id="minder_node13"><g id="node_expander12" style="cursor: pointer;" display="none"><path id="kity_path_124" fill="white" stroke="gray" d="M1311.5,238.5A6,6,0,1,1,1299.5,238.5A6,6,0,1,1,1311.5,238.5"></path><path id="kity_path_125" fill="none" stroke="gray"></path></g><path id="node_outline13" fill="none" stroke="none" d="M1316.5,227.5h238a5,5,0,0,1,5,5v12a5,5,0,0,1,-5,5h-238a5,5,0,0,1,-5,-5v-12a5,5,0,0,1,5,-5z" stroke-width="3"></path><g id="node_text13" fill="black"><text id="kity_text_121" text-rendering="inherit" font-size="12" dy=".8em" y="230.5800018310547" x="1321.5">基础功能同游客身份（不可注册以及登陆）</text></g></g><g id="minder_node14"><g id="node_expander13" style="cursor: pointer;" display="none"><path id="kity_path_132" fill="white" stroke="gray" d="M1311.5,290.5A6,6,0,1,1,1299.5,290.5A6,6,0,1,1,1311.5,290.5"></path><path id="kity_path_133" fill="none" stroke="gray"></path></g><path id="node_outline14" fill="none" stroke="none" d="M1316.5,279.5h154a5,5,0,0,1,5,5v12a5,5,0,0,1,-5,5h-154a5,5,0,0,1,-5,-5v-12a5,5,0,0,1,5,-5z" stroke-width="3"></path><g id="node_text14" fill="black"><text id="kity_text_129" text-rendering="inherit" font-size="12" dy=".8em" y="282.5800018310547" x="1321.5">基本资料的强制补充及修改</text></g></g><g id="minder_node15"><g id="node_expander14" style="cursor: pointer;" display="none"><path id="kity_path_140" fill="white" stroke="gray" d="M1311.5,342.5A6,6,0,1,1,1299.5,342.5A6,6,0,1,1,1311.5,342.5"></path><path id="kity_path_141" fill="none" stroke="gray"></path></g><path id="node_outline15" fill="none" stroke="none" d="M1316.5,331.5h94a5,5,0,0,1,5,5v12a5,5,0,0,1,-5,5h-94a5,5,0,0,1,-5,-5v-12a5,5,0,0,1,5,-5z" stroke-width="3"></path><g id="node_text15" fill="black"><text id="kity_text_137" text-rendering="inherit" font-size="12" dy=".8em" y="334.5800018310547" x="1321.5">安全密码的修改</text></g></g><g id="minder_node16"><g id="node_expander15" style="cursor: pointer;" display="none"><path id="kity_path_148" fill="white" stroke="gray" d="M1311.5,394.5A6,6,0,1,1,1299.5,394.5A6,6,0,1,1,1311.5,394.5"></path><path id="kity_path_149" fill="none" stroke="gray"></path></g><path id="node_outline16" fill="none" stroke="none" d="M1316.5,383.5h94a5,5,0,0,1,5,5v12a5,5,0,0,1,-5,5h-94a5,5,0,0,1,-5,-5v-12a5,5,0,0,1,5,-5z" stroke-width="3"></path><g id="node_text16" fill="black"><text id="kity_text_145" text-rendering="inherit" font-size="12" dy=".8em" y="386.5800018310547" x="1321.5">头像设置及修改</text></g></g><g id="minder_node17"><g id="node_expander16" style="cursor: pointer;" display="none"><path id="kity_path_156" fill="white" stroke="gray" d="M1311.5,446.5A6,6,0,1,1,1299.5,446.5A6,6,0,1,1,1311.5,446.5"></path><path id="kity_path_157" fill="none" stroke="gray"></path></g><path id="node_outline17" fill="none" stroke="none" d="M1316.5,435.5h142a5,5,0,0,1,5,5v12a5,5,0,0,1,-5,5h-142a5,5,0,0,1,-5,-5v-12a5,5,0,0,1,5,-5z" stroke-width="3"></path><g id="node_text17" fill="black"><text id="kity_text_153" text-rendering="inherit" font-size="12" dy=".8em" y="438.5800018310547" x="1321.5">个人选课情况及反馈结果</text></g></g><g id="minder_node18"><g id="node_expander17" style="cursor: pointer;" display="none"><path id="kity_path_164" fill="white" stroke="gray" d="M1311.5,498.5A6,6,0,1,1,1299.5,498.5A6,6,0,1,1,1311.5,498.5"></path><path id="kity_path_165" fill="none" stroke="gray"></path></g><path id="node_outline18" fill="none" stroke="none" d="M1316.5,487.5h178a5,5,0,0,1,5,5v12a5,5,0,0,1,-5,5h-178a5,5,0,0,1,-5,-5v-12a5,5,0,0,1,5,-5z" stroke-width="3"></path><g id="node_text18" fill="black"><text id="kity_text_161" text-rendering="inherit" font-size="12" dy=".8em" y="490.5800018310547" x="1321.5">根据基本资料匹配所在班级导师</text></g></g><g id="minder_node19"><g id="node_expander18" style="cursor: pointer;" display="none"><path id="kity_path_172" fill="white" stroke="gray" d="M1311.5,550.5A6,6,0,1,1,1299.5,550.5A6,6,0,1,1,1311.5,550.5"></path><path id="kity_path_173" fill="none" stroke="gray"></path></g><path id="node_outline19" fill="none" stroke="none" d="M1316.5,539.5h178a5,5,0,0,1,5,5v12a5,5,0,0,1,-5,5h-178a5,5,0,0,1,-5,-5v-12a5,5,0,0,1,5,-5z" stroke-width="3"></path><g id="node_text19" fill="black"><text id="kity_text_169" text-rendering="inherit" font-size="12" dy=".8em" y="542.5800018310547" x="1321.5">根据基本资料匹配班级正选结果</text></g></g><g id="minder_node5"><g id="node_expander4" style="cursor: pointer;"><path id="kity_path_60" fill="white" stroke="gray" d="M1203.5,420.5A6,6,0,1,1,1191.5,420.5A6,6,0,1,1,1203.5,420.5"></path><path id="kity_path_61" fill="none" stroke="gray" d="M1193,420.5L1202,420.5"></path></g><path id="node_outline5" fill="none" stroke="none" d="M1208.5,409.5h58a5,5,0,0,1,5,5v12a5,5,0,0,1,-5,5h-58a5,5,0,0,1,-5,-5v-12a5,5,0,0,1,5,-5z" stroke-width="3"></path><g id="node_text5" fill="black"><text id="kity_text_57" text-rendering="inherit" font-size="12" dy=".8em" y="412.5800018310547" x="1213.5">学生身份</text></g></g><g id="minder_node6"><g id="node_expander5" style="cursor: pointer;"><path id="kity_path_68" fill="white" stroke="gray" d="M1203.5,862.5A6,6,0,1,1,1191.5,862.5A6,6,0,1,1,1203.5,862.5"></path><path id="kity_path_69" fill="none" stroke="gray" d="M1193,862.5L1202,862.5"></path></g><path id="node_outline6" fill="none" stroke="none" d="M1208.5,851.5h58a5,5,0,0,1,5,5v12a5,5,0,0,1,-5,5h-58a5,5,0,0,1,-5,-5v-12a5,5,0,0,1,5,-5z" stroke-width="3"></path><g id="node_text6" fill="black"><text id="kity_text_65" text-rendering="inherit" font-size="12" dy=".8em" y="854.5800018310547" x="1213.5">教师身份</text></g></g><g id="minder_node20"><g id="node_expander19" style="cursor: pointer;" display="none"><path id="kity_path_194" fill="white" stroke="gray" d="M1311.5,602.5A6,6,0,1,1,1299.5,602.5A6,6,0,1,1,1311.5,602.5"></path><path id="kity_path_195" fill="none" stroke="gray"></path></g><path id="node_outline20" fill="none" stroke="none" d="M1316.5,591.5h142a5,5,0,0,1,5,5v12a5,5,0,0,1,-5,5h-142a5,5,0,0,1,-5,-5v-12a5,5,0,0,1,5,-5z" stroke-width="3"></path><g id="node_text20" fill="black"><text id="kity_text_191" text-rendering="inherit" font-size="12" dy=".8em" y="594.5800018310547" x="1321.5">核心部分选课及撤销选课</text></g></g><g id="minder_node21"><g id="node_expander20" style="cursor: pointer;" display="none"><path id="kity_path_202" fill="white" stroke="gray" d="M1311.5,654.5A6,6,0,1,1,1299.5,654.5A6,6,0,1,1,1311.5,654.5"></path><path id="kity_path_203" fill="none" stroke="gray"></path></g><path id="node_outline21" fill="none" stroke="none" d="M1316.5,643.5h250a5,5,0,0,1,5,5v12a5,5,0,0,1,-5,5h-250a5,5,0,0,1,-5,-5v-12a5,5,0,0,1,5,-5z" stroke-width="3"></path><g id="node_text21" fill="black"><text id="kity_text_199" text-rendering="inherit" font-size="12" dy=".8em" y="646.5800018310547" x="1321.5">基础功能同游客身份（不可注册以及再登陆）</text></g></g><g id="minder_node22"><g id="node_expander21" style="cursor: pointer;" display="none"><path id="kity_path_210" fill="white" stroke="gray" d="M1311.5,706.5A6,6,0,1,1,1299.5,706.5A6,6,0,1,1,1311.5,706.5"></path><path id="kity_path_211" fill="none" stroke="gray"></path></g><path id="node_outline22" fill="none" stroke="none" d="M1316.5,695.5h154a5,5,0,0,1,5,5v12a5,5,0,0,1,-5,5h-154a5,5,0,0,1,-5,-5v-12a5,5,0,0,1,5,-5z" stroke-width="3"></path><g id="node_text22" fill="black"><text id="kity_text_207" text-rendering="inherit" font-size="12" dy=".8em" y="698.5800018310547" x="1321.5">基本资料的强制补充及修改</text></g></g><g id="minder_node23"><g id="node_expander22" style="cursor: pointer;" display="none"><path id="kity_path_218" fill="white" stroke="gray" d="M1311.5,758.5A6,6,0,1,1,1299.5,758.5A6,6,0,1,1,1311.5,758.5"></path><path id="kity_path_219" fill="none" stroke="gray"></path></g><path id="node_outline23" fill="none" stroke="none" d="M1316.5,747.5h94a5,5,0,0,1,5,5v12a5,5,0,0,1,-5,5h-94a5,5,0,0,1,-5,-5v-12a5,5,0,0,1,5,-5z" stroke-width="3"></path><g id="node_text23" fill="black"><text id="kity_text_215" text-rendering="inherit" font-size="12" dy=".8em" y="750.5800018310547" x="1321.5">安全密码的修改</text></g></g><g id="minder_node24"><g id="node_expander23" style="cursor: pointer;" display="none"><path id="kity_path_226" fill="white" stroke="gray" d="M1311.5,810.5A6,6,0,1,1,1299.5,810.5A6,6,0,1,1,1311.5,810.5"></path><path id="kity_path_227" fill="none" stroke="gray"></path></g><path id="node_outline24" fill="none" stroke="none" d="M1316.5,799.5h94a5,5,0,0,1,5,5v12a5,5,0,0,1,-5,5h-94a5,5,0,0,1,-5,-5v-12a5,5,0,0,1,5,-5z" stroke-width="3"></path><g id="node_text24" fill="black"><text id="kity_text_223" text-rendering="inherit" font-size="12" dy=".8em" y="802.5800018310547" x="1321.5">头像设置及修改</text></g></g><g id="minder_node25"><g id="node_expander24" style="cursor: pointer;" display="none"><path id="kity_path_234" fill="white" stroke="gray" d="M1311.5,862.5A6,6,0,1,1,1299.5,862.5A6,6,0,1,1,1311.5,862.5"></path><path id="kity_path_235" fill="none" stroke="gray"></path></g><path id="node_outline25" fill="none" stroke="none" d="M1316.5,851.5h178a5,5,0,0,1,5,5v12a5,5,0,0,1,-5,5h-178a5,5,0,0,1,-5,-5v-12a5,5,0,0,1,5,-5z" stroke-width="3"></path><g id="node_text25" fill="black"><text id="kity_text_231" text-rendering="inherit" font-size="12" dy=".8em" y="854.5800018310547" x="1321.5">教师个人课程的添加编辑及删除</text></g></g><g id="minder_node26" opacity="1"><g id="node_expander25" style="cursor: pointer;" display="none"><path id="kity_path_242" fill="white" stroke="gray" d="M1311.5,914.5A6,6,0,1,1,1299.5,914.5A6,6,0,1,1,1311.5,914.5"></path><path id="kity_path_243" fill="none" stroke="gray"></path></g><path id="node_outline26" fill="none" stroke="none" d="M1316.5,903.5h166a5,5,0,0,1,5,5v12a5,5,0,0,1,-5,5h-166a5,5,0,0,1,-5,-5v-12a5,5,0,0,1,5,-5z" stroke-width="3"></path><g id="node_text26" fill="black"><text id="kity_text_239" text-rendering="inherit" font-size="12" dy=".8em" y="906.5800018310547" x="1321.5">教师课程被选情况的通知消息</text></g></g><g id="minder_node27"><g id="node_expander26" style="cursor: pointer;" display="none"><path id="kity_path_250" fill="white" stroke="gray" d="M1311.5,966.5A6,6,0,1,1,1299.5,966.5A6,6,0,1,1,1311.5,966.5"></path><path id="kity_path_251" fill="none" stroke="gray"></path></g><path id="node_outline27" fill="none" stroke="none" d="M1316.5,955.5h214a5,5,0,0,1,5,5v12a5,5,0,0,1,-5,5h-214a5,5,0,0,1,-5,-5v-12a5,5,0,0,1,5,-5z" stroke-width="3"></path><g id="node_text27" fill="black"><text id="kity_text_247" text-rendering="inherit" font-size="12" dy=".8em" y="958.5800018310547" x="1321.5">教师对学生的选课申请的拒绝以及接受</text></g></g><g id="minder_node28"><g id="node_expander27" style="cursor: pointer;" display="none"><path id="kity_path_258" fill="white" stroke="gray" d="M1311.5,1018.5A6,6,0,1,1,1299.5,1018.5A6,6,0,1,1,1311.5,1018.5"></path><path id="kity_path_259" fill="none" stroke="gray"></path></g><path id="node_outline28" fill="none" stroke="none" d="M1316.5,1007.5h226a5,5,0,0,1,5,5v12a5,5,0,0,1,-5,5h-226a5,5,0,0,1,-5,-5v-12a5,5,0,0,1,5,-5z" stroke-width="3"></path><g id="node_text28" fill="black"><text id="kity_text_255" text-rendering="inherit" font-size="12" dy=".8em" y="1010.5800018310547" x="1321.5">根据教师的资料匹配所在班级的学生信息</text></g></g><g id="minder_node29"><g id="node_expander28" style="cursor: pointer;" display="none"><path id="kity_path_266" fill="white" stroke="gray" d="M1311.5,1070.5A6,6,0,1,1,1299.5,1070.5A6,6,0,1,1,1311.5,1070.5"></path><path id="kity_path_267" fill="none" stroke="gray"></path></g><path id="node_outline29" fill="none" stroke="none" d="M1316.5,1059.5h214a5,5,0,0,1,5,5v12a5,5,0,0,1,-5,5h-214a5,5,0,0,1,-5,-5v-12a5,5,0,0,1,5,-5z" stroke-width="3"></path><g id="node_text29" fill="black"><text id="kity_text_263" text-rendering="inherit" font-size="12" dy=".8em" y="1062.5800018310547" x="1321.5">根据基本资料匹配所在班级的正选情况</text></g></g><g id="minder_node30"><g id="node_expander29" style="cursor: pointer;"><path id="kity_path_274" fill="white" stroke="gray" d="M376.5,102.5A6,6,0,1,1,364.5,102.5A6,6,0,1,1,376.5,102.5"></path><path id="kity_path_275" fill="none" stroke="gray" d="M366,102.5L375,102.5"></path></g><path id="node_outline30" fill="none" stroke="none" d="M301.5,91.5h58a5,5,0,0,1,5,5v12a5,5,0,0,1,-5,5h-58a5,5,0,0,1,-5,-5v-12a5,5,0,0,1,5,-5z" stroke-width="3"></path><g id="node_text30" fill="black"><text id="kity_text_271" text-rendering="inherit" font-size="12" dy=".8em" y="94.58000183105469" x="306.5">院系设置</text></g></g><g id="minder_node31"><g id="node_expander30" style="cursor: pointer;"><path id="kity_path_282" fill="white" stroke="gray" d="M376.5,206.5A6,6,0,1,1,364.5,206.5A6,6,0,1,1,376.5,206.5"></path><path id="kity_path_283" fill="none" stroke="gray" d="M366,206.5L375,206.5"></path></g><path id="node_outline31" fill="none" stroke="none" d="M301.5,195.5h58a5,5,0,0,1,5,5v12a5,5,0,0,1,-5,5h-58a5,5,0,0,1,-5,-5v-12a5,5,0,0,1,5,-5z" stroke-width="3"></path><g id="node_text31" fill="black"><text id="kity_text_279" text-rendering="inherit" font-size="12" dy=".8em" y="198.5800018310547" x="306.5">专业结果</text></g></g><g id="minder_node32"><g id="node_expander31" style="cursor: pointer;"><path id="kity_path_290" fill="white" stroke="gray" d="M376.5,310.5A6,6,0,1,1,364.5,310.5A6,6,0,1,1,376.5,310.5"></path><path id="kity_path_291" fill="none" stroke="gray" d="M366,310.5L375,310.5"></path></g><path id="node_outline32" fill="none" stroke="none" d="M301.5,299.5h58a5,5,0,0,1,5,5v12a5,5,0,0,1,-5,5h-58a5,5,0,0,1,-5,-5v-12a5,5,0,0,1,5,-5z" stroke-width="3"></path><g id="node_text32" fill="black"><text id="kity_text_287" text-rendering="inherit" font-size="12" dy=".8em" y="302.5800018310547" x="306.5">教师设置</text></g></g><g id="minder_node33"><g id="node_expander32" style="cursor: pointer;"><path id="kity_path_298" fill="white" stroke="gray" d="M376.5,414.5A6,6,0,1,1,364.5,414.5A6,6,0,1,1,376.5,414.5"></path><path id="kity_path_299" fill="none" stroke="gray" d="M366,414.5L375,414.5"></path></g><path id="node_outline33" fill="none" stroke="none" d="M301.5,403.5h58a5,5,0,0,1,5,5v12a5,5,0,0,1,-5,5h-58a5,5,0,0,1,-5,-5v-12a5,5,0,0,1,5,-5z" stroke-width="3"></path><g id="node_text33" fill="black"><text id="kity_text_295" text-rendering="inherit" font-size="12" dy=".8em" y="406.5800018310547" x="306.5">学生设置</text></g></g><g id="minder_node34"><g id="node_expander33" style="cursor: pointer;"><path id="kity_path_306" fill="white" stroke="gray" d="M376.5,544.5A6,6,0,1,1,364.5,544.5A6,6,0,1,1,376.5,544.5"></path><path id="kity_path_307" fill="none" stroke="gray" d="M366,544.5L375,544.5"></path></g><path id="node_outline34" fill="none" stroke="none" d="M301.5,533.5h58a5,5,0,0,1,5,5v12a5,5,0,0,1,-5,5h-58a5,5,0,0,1,-5,-5v-12a5,5,0,0,1,5,-5z" stroke-width="3"></path><g id="node_text34" fill="black"><text id="kity_text_303" text-rendering="inherit" font-size="12" dy=".8em" y="536.5800018310547" x="306.5">系统设置</text></g></g><g id="minder_node35"><g id="node_expander34" style="cursor: pointer;" display="none"><path id="kity_path_314" fill="white" stroke="gray" d="M268.5,76.5A6,6,0,1,1,256.5,76.5A6,6,0,1,1,268.5,76.5"></path><path id="kity_path_315" fill="none" stroke="gray"></path></g><path id="node_outline35" fill="none" stroke="none" d="M73.5,65.5h178a5,5,0,0,1,5,5v12a5,5,0,0,1,-5,5h-178a5,5,0,0,1,-5,-5v-12a5,5,0,0,1,5,-5z" stroke-width="3"></path><g id="node_text35" fill="black"><text id="kity_text_311" text-rendering="inherit" font-size="12" dy=".8em" y="68.58000183105469" x="78.5">院系的增加。编辑。修改。删除</text></g></g><g id="minder_node36"><g id="node_expander35" style="cursor: pointer;" display="none"><path id="kity_path_322" fill="white" stroke="gray" d="M268.5,128.5A6,6,0,1,1,256.5,128.5A6,6,0,1,1,268.5,128.5"></path><path id="kity_path_323" fill="none" stroke="gray"></path></g><path id="node_outline36" fill="none" stroke="none" d="M73.5,117.5h178a5,5,0,0,1,5,5v12a5,5,0,0,1,-5,5h-178a5,5,0,0,1,-5,-5v-12a5,5,0,0,1,5,-5z" stroke-width="3"></path><g id="node_text36" fill="black"><text id="kity_text_319" text-rendering="inherit" font-size="12" dy=".8em" y="120.58000183105469" x="78.5">院系的正选结果的查看以及统计</text></g></g><g id="minder_node39"><g id="node_expander38" style="cursor: pointer;" display="none"><path id="kity_path_346" fill="white" stroke="gray" d="M268.5,180.5A6,6,0,1,1,256.5,180.5A6,6,0,1,1,268.5,180.5"></path><path id="kity_path_347" fill="none" stroke="gray"></path></g><path id="node_outline39" fill="none" stroke="none" d="M25.5,169.5h226a5,5,0,0,1,5,5v12a5,5,0,0,1,-5,5h-226a5,5,0,0,1,-5,-5v-12a5,5,0,0,1,5,-5z" stroke-width="3"></path><g id="node_text39" fill="black"><text id="kity_text_343" text-rendering="inherit" font-size="12" dy=".8em" y="172.5800018310547" x="30.5">根据院系进行专业的增加，修改以及删除</text></g></g><g id="minder_node40"><g id="node_expander39" style="cursor: pointer;" display="none"><path id="kity_path_354" fill="white" stroke="gray" d="M268.5,232.5A6,6,0,1,1,256.5,232.5A6,6,0,1,1,268.5,232.5"></path><path id="kity_path_355" fill="none" stroke="gray"></path></g><path id="node_outline40" fill="none" stroke="none" d="M80.5,221.5h171a5,5,0,0,1,5,5v12a5,5,0,0,1,-5,5h-171a5,5,0,0,1,-5,-5v-12a5,5,0,0,1,5,-5z" stroke-width="3"></path><g id="node_text40" fill="black"><text id="kity_text_351" text-rendering="inherit" font-size="12" dy=".8em" y="224.5800018310547" x="85.5">专业的正选结果以及excel导出</text></g></g><g id="minder_node41"><g id="node_expander40" style="cursor: pointer;" display="none"><path id="kity_path_362" fill="white" stroke="gray" d="M268.5,284.5A6,6,0,1,1,256.5,284.5A6,6,0,1,1,268.5,284.5"></path><path id="kity_path_363" fill="none" stroke="gray"></path></g><path id="node_outline41" fill="none" stroke="none" d="M85.5,273.5h166a5,5,0,0,1,5,5v12a5,5,0,0,1,-5,5h-166a5,5,0,0,1,-5,-5v-12a5,5,0,0,1,5,-5z" stroke-width="3"></path><g id="node_text41" fill="black"><text id="kity_text_359" text-rendering="inherit" font-size="12" dy=".8em" y="276.5800018310547" x="90.5">根据院系进行教师的信息查看</text></g></g><g id="minder_node42"><g id="node_expander41" style="cursor: pointer;" display="none"><path id="kity_path_370" fill="white" stroke="gray" d="M268.5,336.5A6,6,0,1,1,256.5,336.5A6,6,0,1,1,268.5,336.5"></path><path id="kity_path_371" fill="none" stroke="gray"></path></g><path id="node_outline42" fill="none" stroke="none" d="M61.5,325.5h190a5,5,0,0,1,5,5v12a5,5,0,0,1,-5,5h-190a5,5,0,0,1,-5,-5v-12a5,5,0,0,1,5,-5z" stroke-width="3"></path><g id="node_text42" fill="black"><text id="kity_text_367" text-rendering="inherit" font-size="12" dy=".8em" y="328.5800018310547" x="66.5">教师的所上传课程的学生选课详情</text></g></g><g id="minder_node43"><g id="node_expander42" style="cursor: pointer;" display="none"><path id="kity_path_378" fill="white" stroke="gray" d="M268.5,388.5A6,6,0,1,1,256.5,388.5A6,6,0,1,1,268.5,388.5"></path><path id="kity_path_379" fill="none" stroke="gray"></path></g><path id="node_outline43" fill="none" stroke="none" d="M73.5,377.5h178a5,5,0,0,1,5,5v12a5,5,0,0,1,-5,5h-178a5,5,0,0,1,-5,-5v-12a5,5,0,0,1,5,-5z" stroke-width="3"></path><g id="node_text43" fill="black"><text id="kity_text_375" text-rendering="inherit" font-size="12" dy=".8em" y="380.5800018310547" x="78.5">学生根据院系以及专业进行统计</text></g></g><g id="minder_node44"><g id="node_expander43" style="cursor: pointer;" display="none"><path id="kity_path_386" fill="white" stroke="gray" d="M268.5,440.5A6,6,0,1,1,256.5,440.5A6,6,0,1,1,268.5,440.5"></path><path id="kity_path_387" fill="none" stroke="gray"></path></g><path id="node_outline44" fill="none" stroke="none" d="M97.5,429.5h154a5,5,0,0,1,5,5v12a5,5,0,0,1,-5,5h-154a5,5,0,0,1,-5,-5v-12a5,5,0,0,1,5,-5z" stroke-width="3"></path><g id="node_text44" fill="black"><text id="kity_text_383" text-rendering="inherit" font-size="12" dy=".8em" y="432.5800018310547" x="102.5">学生的具体选课情况及反馈</text></g></g><g id="minder_node45"><g id="node_expander44" style="cursor: pointer;" display="none"><path id="kity_path_394" fill="white" stroke="gray" d="M268.5,492.5A6,6,0,1,1,256.5,492.5A6,6,0,1,1,268.5,492.5"></path><path id="kity_path_395" fill="none" stroke="gray"></path></g><path id="node_outline45" fill="none" stroke="none" d="M133.5,481.5h118a5,5,0,0,1,5,5v12a5,5,0,0,1,-5,5h-118a5,5,0,0,1,-5,-5v-12a5,5,0,0,1,5,-5z" stroke-width="3"></path><g id="node_text45" fill="black"><text id="kity_text_391" text-rendering="inherit" font-size="12" dy=".8em" y="484.5800018310547" x="138.5">选课的开始结束时间</text></g></g><g id="minder_node46"><g id="node_expander45" style="cursor: pointer;" display="none"><path id="kity_path_402" fill="white" stroke="gray" d="M268.5,544.5A6,6,0,1,1,256.5,544.5A6,6,0,1,1,268.5,544.5"></path><path id="kity_path_403" fill="none" stroke="gray"></path></g><path id="node_outline46" fill="none" stroke="none" d="M157.5,533.5h94a5,5,0,0,1,5,5v12a5,5,0,0,1,-5,5h-94a5,5,0,0,1,-5,-5v-12a5,5,0,0,1,5,-5z" stroke-width="3"></path><g id="node_text46" fill="black"><text id="kity_text_399" text-rendering="inherit" font-size="12" dy=".8em" y="536.5800018310547" x="162.5">选课的没人限选</text></g></g><g id="minder_node47"><g id="node_expander46" style="cursor: pointer;" display="none"><path id="kity_path_410" fill="white" stroke="gray" d="M268.5,596.5A6,6,0,1,1,256.5,596.5A6,6,0,1,1,268.5,596.5"></path><path id="kity_path_411" fill="none" stroke="gray"></path></g><path id="node_outline47" fill="none" stroke="none" d="M181.5,585.5h70a5,5,0,0,1,5,5v12a5,5,0,0,1,-5,5h-70a5,5,0,0,1,-5,-5v-12a5,5,0,0,1,5,-5z" stroke-width="3"></path><g id="node_text47" fill="black"><text id="kity_text_407" text-rendering="inherit" font-size="12" dy=".8em" y="588.5800018310547" x="186.5">选课的密码</text></g></g><g id="kity_g_12" display="none"><path id="kity_path_13" fill="none" stroke="rgb(66, 94, 112)" d="M1322.5,366.5h214a5,5,0,0,1,5,5v12a5,5,0,0,1,-5,5h-214a5,5,0,0,1,-5,-5v-12a5,5,0,0,1,5,-5z" stroke-width="5"></path></g></g></g></svg>